<?xml version="1.0" encoding="UTF-8" standalone="no"?>
<svg
   width="750"
   height="750"
   version="1.1"
   id="svg13"
   viewBox="0 0 750 750"
   xmlns="http://www.w3.org/2000/svg"
   xmlns:svg="http://www.w3.org/2000/svg">
  <defs
     id="defs1" />
  <path
     id="use3"
     style="fill:#339900;stroke-width:0.991578"
     d="m 570.32935,116.15634 c 0,64.15137 -52.00497,116.15633 -116.15634,116.15633 -64.15138,0 -116.15634,-52.00496 -116.15634,-116.15633 C 338.01667,52.00497 390.02163,0 454.17301,0 518.32438,0 570.32935,52.00497 570.32935,116.15634 Z m -158.34597,1.48751 c 0,64.15138 -52.00497,116.15634 -116.15634,116.15634 -64.15138,0 -116.15634,-52.00496 -116.15634,-116.15634 0,-64.15137 52.00496,-116.15634 116.15634,-116.15634 64.15137,0 116.15634,52.00497 116.15634,116.15634 z M 374.2563,39.83515 534.51957,200.09843 374.2563,360.36172 213.99301,200.09843 Z" />
  <path
     id="use6"
     style="fill:#339900;stroke-width:0.991578"
     d="m 570.32935,633.84367 c 0,-64.15137 -52.00497,-116.15633 -116.15634,-116.15633 -64.15138,0 -116.15634,52.00496 -116.15634,116.15633 0,64.15137 52.00496,116.15634 116.15634,116.15634 64.15137,0 116.15634,-52.00497 116.15634,-116.15634 z m -158.34597,-1.48751 c 0,-64.15138 -52.00497,-116.15634 -116.15634,-116.15634 -64.15138,0 -116.15634,52.00496 -116.15634,116.15634 0,64.15137 52.00496,116.15634 116.15634,116.15634 64.15137,0 116.15634,-52.00497 116.15634,-116.15634 z M 374.2563,710.16486 534.51957,549.90158 374.2563,389.63829 213.99301,549.90158 Z" />
  <path
     id="use9"
     style="fill:#339900;stroke-width:0.991578"
     d="m 633.84363,570.32935 c -64.15137,0 -116.15633,-52.00497 -116.15633,-116.15634 0,-64.15138 52.00496,-116.15634 116.15633,-116.15634 64.15137,0 116.15634,52.00496 116.15634,116.15634 0,64.15137 -52.00497,116.15634 -116.15634,116.15634 z m -1.48751,-158.34597 c -64.15138,0 -116.15634,-52.00497 -116.15634,-116.15634 0,-64.15138 52.00496,-116.15634 116.15634,-116.15634 64.15137,0 116.15634,52.00496 116.15634,116.15634 0,64.15137 -52.00497,116.15634 -116.15634,116.15634 z M 710.16482,374.2563 549.90154,534.51957 389.63825,374.2563 549.90154,213.99301 Z" />
  <path
     id="use12"
     style="fill:#339900;stroke-width:0.991578"
     d="m 116.15633,570.32935 c 64.15138,0 116.15634,-52.00497 116.15634,-116.15634 0,-64.15138 -52.00496,-116.15634 -116.15634,-116.15634 -64.151367,0 -116.156336,52.00496 -116.156336,116.15634 0,64.15137 52.004969,116.15634 116.156336,116.15634 z m 1.48752,-158.34597 c 64.15138,0 116.15634,-52.00497 116.15634,-116.15634 0,-64.15138 -52.00496,-116.15634 -116.15634,-116.15634 -64.15137,0 -116.156339,52.00496 -116.156339,116.15634 0,64.15137 52.004969,116.15634 116.156339,116.15634 z M 39.835142,374.2563 200.09843,534.51957 360.36172,374.2563 200.09843,213.99301 Z" />
</svg>
